<svg data-v-423bf9ae="" xmlns="http://www.w3.org/2000/svg" viewBox="0 0 255.87266699167665 60" class="font"><!----><!----><defs data-v-423bf9ae=""><linearGradient data-v-423bf9ae="" gradientTransform="rotate(25)" id="a8a769b5-198f-4bf9-a0c0-ac7ac17691af" x1="0%" y1="0%" x2="100%" y2="0%"><stop data-v-423bf9ae="" offset="0%" style="stop-color: rgb(0, 118, 221); stop-opacity: 1;"></stop><stop data-v-423bf9ae="" offset="100%" style="stop-color: rgb(0, 205, 233); stop-opacity: 1;"></stop></linearGradient></defs><g data-v-423bf9ae="" id="55bed121-e37e-41c2-972f-bd0393a8b045" fill="url(#a8a769b5-198f-4bf9-a0c0-ac7ac17691af)" transform="matrix(6.586169242858887,0,0,6.586169242858887,-2.3710172176361084,-9.879253387451172)"><path d="M5.94 4.40C5.25 3.75 4.37 3.47 3.36 3.47C1.96 3.46 0.60 4.05 0.62 5.40C0.63 6.79 1.96 7.04 3.30 7.27C4.44 7.45 5.59 7.64 5.56 8.64C5.52 9.73 4.24 9.95 3.40 9.95C2.48 9.95 1.44 9.60 0.87 8.78L0.36 9.23C0.97 10.15 2.17 10.61 3.39 10.61C4.61 10.61 6.19 10.21 6.23 8.68C6.30 7.07 4.61 6.86 3.37 6.65C2.51 6.50 1.30 6.31 1.27 5.39C1.25 4.51 2.28 4.10 3.36 4.12C4.13 4.12 4.82 4.23 5.52 4.84ZM18.69 10.50L18.69 6.36C18.69 4.63 17.49 3.44 15.79 3.44C14.73 3.44 13.65 4.02 13.23 5.15C12.82 3.92 11.72 3.44 10.67 3.44C9.77 3.44 8.89 3.82 8.41 4.73L8.40 3.58L7.76 3.58L7.76 10.50L8.44 10.50L8.44 6.40C8.44 5.07 9.34 4.10 10.65 4.10C11.97 4.10 12.88 5.07 12.88 6.40L12.88 10.50L13.57 10.50L13.57 6.40C13.57 5.07 14.48 4.09 15.79 4.09C17.11 4.09 18.00 5.03 18.00 6.36L18.00 10.50ZM26.59 3.58L26.59 5.10C26.01 4.02 24.88 3.50 23.76 3.50C21.83 3.50 20.24 4.93 20.24 7.04C20.24 9.16 21.83 10.61 23.76 10.61C24.88 10.61 25.91 10.11 26.59 9.03L26.59 10.50L27.27 10.50C27.27 8.19 27.27 5.89 27.27 3.58ZM23.76 4.16C27.61 4.16 27.61 9.94 23.76 9.94C22.19 9.94 20.93 8.78 20.93 7.04C20.93 5.31 22.19 4.16 23.76 4.16ZM29.13 3.58L29.13 10.50L29.82 10.50L29.82 6.47C29.82 5.21 30.81 4.17 32.10 4.16C32.51 4.16 32.91 4.26 33.28 4.48L33.59 3.92C33.12 3.64 32.62 3.50 32.10 3.51C31.22 3.51 30.24 3.88 29.81 4.82L29.78 3.58ZM35.97 1.57L35.97 3.58L34.50 3.58L34.50 4.16L35.97 4.16L35.97 8.37C35.97 9.73 36.44 10.60 37.91 10.60C38.35 10.60 38.78 10.46 39.21 10.25L38.98 9.69C38.63 9.86 38.25 9.97 37.91 9.97C36.83 9.97 36.64 9.31 36.64 8.37L36.64 4.16L38.99 4.16L38.99 3.58L36.64 3.58L36.64 1.50Z"></path></g><!----><!----></svg>